<?xml version="1.0" encoding="UTF-8"?>
<svg width="49px" height="48px" viewBox="0 0 49 48" version="1.1" xmlns="http://www.w3.org/2000/svg" xmlns:xlink="http://www.w3.org/1999/xlink">
    <title>Access Icon</title>
    <g id="Symbols" stroke="none" stroke-width="1" fill="none" fill-rule="evenodd">
        <g id="Framework-Footer/Access" transform="translate(-345, -27)" fill-rule="nonzero">
            <g id="Access-Icon" transform="translate(347.5253, 29)">
                <path d="M37.6708861,0 C41.1338608,0 43.9493671,2.81550633 43.9493671,6.27848101 L43.9493671,37.6708861 C43.9493671,41.1338608 41.1338608,43.9493671 37.6708861,43.9493671 L6.27848101,43.9493671 C2.81550633,43.9493671 0,41.1338608 0,37.6708861 L0,6.27848101 C0,2.81550633 2.81550633,0 6.27848101,0 L37.6708861,0 Z M19.2761323,24.5498418 L14.3726019,24.5498418 C9.08816258,24.5498418 4.80696203,28.8310423 4.80696203,34.1154816 C4.80696203,34.9953273 5.52049545,35.7088608 6.40034118,35.7088608 L27.248393,35.7088608 C28.1282387,35.7088608 28.8417722,34.9953273 28.8417722,34.1154816 C28.8417722,28.8310423 24.5605716,24.5498418 19.2761323,24.5498418 Z M30.4888004,25.4082278 L27.1947439,25.4082278 C27.065986,25.4082278 26.942593,25.4135928 26.813835,25.4189577 C29.1046529,27.3825158 30.5585443,30.3063934 30.5585443,33.5628956 L30.5585443,33.9920886 C30.5585443,34.6197834 30.3868671,35.2045589 30.0971618,35.7088608 L37.4953768,35.7088608 C38.4020471,35.7088608 39.1424051,34.9738677 39.1424051,34.0618325 C39.1424051,29.281695 35.2689379,25.4082278 30.4888004,25.4082278 Z M16.8243671,8.24050633 C13.0317788,8.24050633 9.95727848,11.3150066 9.95727848,15.1075949 C9.95727848,18.9001833 13.0317788,21.9746835 16.8243671,21.9746835 C20.6169554,21.9746835 23.6914557,18.9001833 23.6914557,15.1075949 C23.6914557,11.3150066 20.6169554,8.24050633 16.8243671,8.24050633 Z M27.9833861,9.95727848 C26.6528877,9.95727848 25.4243226,10.3918364 24.4264488,11.1214646 C25.0541436,12.3124753 25.4082278,13.6697983 25.4082278,15.1075949 C25.4082278,17.017504 24.7858979,18.7825603 23.7290101,20.2096272 C24.8180874,21.2987045 26.3202631,21.9746835 27.9833861,21.9746835 C31.3042672,21.9746835 33.9920886,19.2868621 33.9920886,15.965981 C33.9920886,12.6450999 31.3042672,9.95727848 27.9833861,9.95727848 Z" id="Combined-Shape" fill="#000000"></path>
                <rect id="Rectangle" stroke="#000000" stroke-width="3.84556962" x="0" y="0" width="43.9493671" height="43.9493671" rx="6.59240506"></rect>
            </g>
        </g>
    </g>
</svg>