<?xml version="1.0" encoding="UTF-8"?>
<svg width="44px" height="44px" viewBox="0 0 44 44" version="1.1" xmlns="http://www.w3.org/2000/svg" xmlns:xlink="http://www.w3.org/1999/xlink">
    <title>Group 3</title>
    <g id="Symbols" stroke="none" stroke-width="1" fill="none" fill-rule="evenodd">
        <g id="Framework-Footer/Profile" transform="translate(-349, -29)" fill-rule="nonzero">
            <g id="Group-3" transform="translate(351, 31)">
                <path d="M9.09090909,13.6363636 C9.09090909,10.1218243 11.9400061,7.27272727 15.4545455,7.27272727 C18.9690848,7.27272727 21.8181818,10.1218243 21.8181818,13.6363636 C21.8181818,17.150903 18.9690848,20 15.4545455,20 C11.9400061,20 9.09090909,17.150903 9.09090909,13.6363636 Z M4.54545455,31.2993881 C4.54545455,26.5638112 8.43181818,22.7272727 13.2288961,22.7272727 L17.6801948,22.7272727 C22.4772727,22.7272727 26.3636364,26.5638112 26.3636364,31.2993881 C26.3636364,32.0878497 25.7159091,32.7272727 24.9172078,32.7272727 L5.99188312,32.7272727 C5.19318182,32.7272727 4.54545455,32.0878497 4.54545455,31.2993881 Z M33.9971517,33.6363636 L27.4507477,33.6363636 C27.7070971,33.1467803 27.8590078,32.579072 27.8590078,31.969697 L27.8590078,31.5530303 C27.8590078,28.391572 26.5725136,25.5530303 24.5454545,23.6467803 C24.6593876,23.641572 24.7685735,23.6363636 24.8825065,23.6363636 L27.7972941,23.6363636 C32.0270591,23.6363636 35.4545455,27.3967803 35.4545455,32.0374053 C35.4545455,32.922822 34.7994303,33.6363636 33.9971517,33.6363636 Z M25.5866559,20 C24.1134819,20 22.7828732,19.3863636 21.8181818,18.3977273 C22.7543601,17.1022727 23.3056123,15.5 23.3056123,13.7662338 C23.3056123,12.461039 22.9919688,11.2288961 22.4359645,10.1477273 C23.3198688,9.48538961 24.4081167,9.09090909 25.5866559,9.09090909 C28.5282517,9.09090909 30.9090909,11.5308442 30.9090909,14.5454545 C30.9090909,17.5600649 28.5282517,20 25.5866559,20 Z" id="Combined-Shape" fill="#000000"></path>
                <rect id="Rectangle" stroke="#000000" stroke-width="3.49597238" x="0" y="0" width="40" height="40" rx="5.99309551"></rect>
            </g>
        </g>
    </g>
</svg>