<?xml version="1.0" encoding="UTF-8"?>
<svg width="24px" height="24px" viewBox="0 0 24 24" version="1.1" xmlns="http://www.w3.org/2000/svg" xmlns:xlink="http://www.w3.org/1999/xlink">
    <title>Combined Shape</title>
    <g id="Wallet-MVP-Resize" stroke="none" stroke-width="1" fill="none" fill-rule="evenodd">
        <g id="Credential-View---Student-ID" transform="translate(-326, -234)" fill="#666666" fill-rule="nonzero">
            <g id="Group-2" transform="translate(16, 210)">
                <path d="M324.108997,24.3440467 C324.390202,24.0487822 324.807321,23.9316138 325.201007,24.0394088 C325.594693,24.1472037 325.904018,24.4565285 326.00244,24.8502145 L326.747631,27.779426 L329.653409,26.9592467 C330.047095,26.846765 330.468901,26.9592467 330.754792,27.2451378 C331.040683,27.5310288 331.153165,27.9528353 331.040683,28.3465213 L330.220504,31.2522991 L333.149716,31.9928037 C333.543402,32.095912 333.852726,32.40055 333.960521,32.794236 C334.068316,33.187922 333.951148,33.6050417 333.66057,33.8909328 L331.495297,35.999965 L333.66057,38.1089973 C333.951148,38.3902016 334.068316,38.812008 333.960521,39.2056941 C333.852726,39.5993801 333.543402,39.9087048 333.149716,40.0071263 L330.220504,40.747631 L331.040683,43.6534087 C331.153165,44.0470948 331.040683,44.4689012 330.754792,44.7547923 C330.468901,45.0406833 330.047095,45.153165 329.653409,45.0406833 L326.747631,44.2205041 L326.007126,47.1497156 C325.904018,47.5434016 325.59938,47.8527263 325.205694,47.9605213 C324.812008,48.0683163 324.394888,47.9511478 324.108997,47.66057 L321.999965,45.4952969 L319.890933,47.66057 C319.605042,47.9511478 319.187922,48.0683163 318.794236,47.9605213 C318.40055,47.8527263 318.091225,47.5434016 317.992804,47.1497156 L317.252299,44.2205041 L314.346521,45.0406833 C313.952835,45.153165 313.531029,45.0406833 313.245138,44.7547923 C312.959247,44.4689012 312.846765,44.0470948 312.959247,43.6534087 L313.779426,40.747631 L310.850214,40.0071263 C310.456528,39.9040181 310.142517,39.5993801 310.039409,39.2056941 C309.936301,38.812008 310.048782,38.3902016 310.344047,38.1089973 L312.50932,35.999965 L310.344047,33.8909328 C310.048782,33.6097285 309.931614,33.1926088 310.039409,32.7989227 C310.147204,32.4052367 310.456528,32.095912 310.850214,31.9974905 L313.779426,31.2522991 L312.959247,28.3465213 C312.846765,27.9528353 312.959247,27.5310288 313.245138,27.2451378 C313.531029,26.9592467 313.952835,26.846765 314.346521,26.9592467 L317.252299,27.779426 L317.992804,24.8502145 C318.095912,24.4565285 318.40055,24.142517 318.794236,24.0394088 C319.187922,23.9363005 319.609728,24.0487822 319.890933,24.3440467 L321.999965,26.5093199 Z M327.292187,32.203125 C326.85625,31.7625 326.14375,31.7625 325.703125,32.203125 L320.5,37.4109375 L318.296875,35.2078125 C317.860937,34.7671875 317.148437,34.771875 316.707812,35.2078125 C316.267187,35.64375 316.267187,36.35625 316.707812,36.796875 L319.707812,39.796875 C320.14375,40.2375 320.85625,40.2375 321.296875,39.796875 L327.296875,33.796875 C327.732812,33.35625 327.728125,32.64375 327.292187,32.203125 Z" id="Combined-Shape"></path>
            </g>
        </g>
    </g>
</svg>