<?xml version="1.0" encoding="UTF-8"?>
<svg width="50px" height="44px" viewBox="0 0 50 44" version="1.1" xmlns="http://www.w3.org/2000/svg" xmlns:xlink="http://www.w3.org/1999/xlink">
    <title>house-solid</title>
    <g id="Symbols" stroke="none" stroke-width="1" fill="none" fill-rule="evenodd">
        <g id="Framework-Footer/Profile" transform="translate(-15, -29)" fill-rule="nonzero" stroke="#000000" stroke-width="3.80952381">
            <g id="house-solid" transform="translate(17, 31)">
                <path d="M45.9879387,19.9609375 C45.9879387,21.3671875 44.7899202,22.46875 43.4321658,22.46875 L40.8763929,22.46875 L40.9323004,34.984375 C40.9323004,35.1953125 40.9163269,35.40625 40.8923665,35.6171875 L40.8923665,36.875 C40.8923665,38.6015625 39.462731,40 37.6976504,40 L36.4197639,40 C36.3319092,40 36.2440545,40 36.1561998,39.9921875 C36.0443848,40 35.9325697,40 35.8207546,40 L33.2250478,40 L31.3082181,40 C29.5431374,40 28.113502,38.6015625 28.113502,36.875 L28.113502,35 L28.113502,30 C28.113502,28.6171875 26.9713909,27.5 25.5577291,27.5 L20.4461832,27.5 C19.0325214,27.5 17.8904103,28.6171875 17.8904103,30 L17.8904103,35 L17.8904103,36.875 C17.8904103,38.6015625 16.4607749,40 14.6956942,40 L12.7788645,40 L10.2310784,40 C10.1112766,40 9.9914747,39.9921875 9.87167285,39.984375 C9.77583136,39.9921875 9.67998988,40 9.5841484,40 L8.30626194,40 C6.54118128,40 5.11154581,38.6015625 5.11154581,36.875 L5.11154581,28.125 C5.11154581,28.0546875 5.11154581,27.9765625 5.1195326,27.90625 L5.1195326,22.46875 L2.55577291,22.46875 C1.11815065,22.46875 0,21.375 0,19.9609375 C0,19.2578125 0.23960371,18.6328125 0.798679033,18.0859375 L21.2768094,0.625 C21.8358848,0.078125 22.474828,0 23.0339033,0 C23.5929786,0 24.2319219,0.15625 24.7111293,0.546875 L45.1093918,18.0859375 C45.748335,18.6328125 46.0678066,19.2578125 45.9879387,19.9609375 Z" id="Path"></path>
            </g>
        </g>
    </g>
</svg>